<svg version="1.1" id="Layer_1" xmlns="http://www.w3.org/2000/svg" xmlns:xlink="http://www.w3.org/1999/xlink" x="0px" y="0px"
	 width="100%" viewBox="0 0 425 419" enable-background="new 0 0 425 419" xml:space="preserve">
<path fill="#3D4C68" opacity="1.000000" stroke="none" 
	d="
M28.111553,241.681335 
	C27.371874,230.837677 26.109373,220.433624 26.116066,210.030396 
	C26.132442,184.579086 31.901236,160.295212 41.968292,136.924469 
	C51.326542,115.199234 64.486526,96.006584 81.203087,79.522064 
	C104.566261,56.483196 132.137787,40.398323 164.050644,31.749750 
	C183.601181,26.451435 203.401688,24.031069 223.486969,25.147108 
	C246.061417,26.401457 267.819489,31.669106 288.637451,40.799534 
	C307.299591,48.984447 324.014526,59.927193 339.158478,73.557098 
	C366.349731,98.029869 384.413086,127.909462 394.226959,163.086029 
	C399.671539,182.601273 401.964966,202.430283 400.852356,222.514557 
	C399.601715,245.091278 394.324921,266.849670 385.178284,287.660431 
	C375.944397,308.669708 363.094025,326.957581 347.197845,343.556824 
	C322.411224,369.439667 292.356079,385.724670 258.148438,394.691223 
	C240.304794,399.368408 221.895889,401.078217 203.452805,399.890656 
	C180.888321,398.437683 159.126511,393.317871 138.310638,384.176147 
	C119.650780,375.981262 102.952538,365.021667 87.799728,351.403229 
	C60.715149,327.061279 42.558792,297.339905 32.959332,262.318848 
	C31.131229,255.649506 29.752300,248.857010 28.111553,241.681335 
M184.510101,277.028290 
	C206.841934,277.027557 229.174606,276.927368 251.504898,277.112274 
	C255.833954,277.148132 257.284576,275.935120 257.237701,271.477051 
	C257.025635,251.314041 256.333099,231.103668 257.418976,210.997070 
	C258.198578,196.561600 255.186661,184.163406 245.826019,173.267960 
	C245.610275,173.016846 245.425995,172.731384 245.266663,172.440262 
	C243.300156,168.846848 241.561996,168.935791 239.199677,172.334976 
	C227.366974,189.361328 227.313400,189.324539 227.234802,210.382278 
	C227.226715,212.548798 227.291565,214.717758 227.204315,216.880814 
	C227.163864,217.883957 226.839355,218.875656 226.525070,220.476151 
	C220.261368,213.918396 214.975159,207.353134 208.643585,202.031677 
	C201.663315,196.165009 201.689606,189.136459 202.702026,181.405930 
	C205.932053,180.838242 209.023636,180.294876 212.115219,179.751511 
	C212.065933,179.038147 212.016632,178.324783 211.967346,177.611420 
	C208.858307,177.282379 205.749252,176.953339 202.320786,176.590485 
	C202.320786,174.567642 202.539658,172.711319 202.237930,170.943878 
	C202.059647,169.899429 201.057724,168.995605 200.426193,168.028534 
	C199.879868,169.069504 199.021652,170.064041 198.858246,171.162003 
	C198.594208,172.936096 198.787231,174.778229 198.787231,176.493591 
	C195.224655,177.002045 192.106567,177.447052 188.988480,177.892059 
	C189.024582,178.626373 189.060684,179.360703 189.096771,180.095016 
	C192.205856,180.483917 195.314926,180.872833 198.279007,181.243591 
	C200.075241,189.830750 198.582169,196.810608 191.651184,202.835526 
	C184.890594,208.712326 178.982040,215.607025 173.018295,222.337387 
	C171.441849,224.116486 170.286972,226.919327 170.229172,229.283615 
	C169.948227,240.775925 170.075974,252.279068 170.115768,263.778168 
	C170.161255,276.922333 170.187271,276.922241 184.510101,277.028290 
M295.077698,275.391663 
	C293.789764,276.089264 292.501801,276.786865 291.213867,277.484467 
	C292.438538,278.045166 293.632324,278.987946 294.894135,279.090057 
	C297.868378,279.330719 300.891815,279.364105 303.862915,279.106689 
	C305.947784,278.926056 307.979126,278.128113 310.034393,277.605835 
	C308.168915,276.784698 306.300568,275.969971 304.440918,275.135773 
	C304.149200,275.004944 303.897095,274.785675 303.257874,274.364014 
	C303.257874,272.802673 303.257812,271.002808 303.257843,269.202911 
	C303.258270,246.917511 303.321350,224.631699 303.169617,202.347336 
	C303.153046,199.914993 301.899017,197.491089 301.218964,195.063263 
	C300.545288,197.553101 299.303070,200.039185 299.286652,202.533340 
	C299.136871,225.316666 299.201050,248.101395 299.200256,270.885712 
	C299.200195,273.162292 299.775330,275.866486 295.077698,275.391663 
M214.500000,284.948853 
	C204.183228,284.948822 193.866440,284.946899 183.549667,284.949280 
	C173.565720,284.951569 163.580750,284.893890 153.599335,285.055023 
	C152.509201,285.072632 151.439590,286.361298 150.360443,287.060394 
	C151.414749,287.650055 152.442184,288.298492 153.537170,288.799164 
	C153.951492,288.988617 154.521744,288.840363 155.020920,288.840363 
	C192.460770,288.840118 229.900696,288.866180 267.340149,288.744110 
	C268.905640,288.739014 270.466644,287.351654 272.029755,286.608246 
	C270.492035,286.055481 268.957428,285.032227 267.416107,285.022064 
	C250.111343,284.907715 232.805527,284.949158 214.500000,284.948853 
M128.392990,278.986145 
	C129.391281,278.983215 130.451538,279.195221 131.373993,278.929291 
	C132.935181,278.479248 134.409286,277.727142 135.919998,277.102051 
	C134.514771,276.380371 133.147934,275.563904 131.689636,274.973267 
	C130.840958,274.629547 129.845688,274.647736 128.700729,274.469482 
	C128.700729,272.396118 128.701294,270.579163 128.700653,268.762207 
	C128.692459,245.967606 128.721130,223.172775 128.591324,200.378876 
	C128.582794,198.881775 127.362411,197.391586 126.705727,195.898178 
	C126.065964,197.368912 124.876434,198.836777 124.868698,200.310822 
	C124.748207,223.271225 124.780563,246.232437 124.777679,269.193451 
	C124.777458,270.973480 124.777649,272.753510 124.777649,274.698975 
	C123.031181,274.796570 121.647423,274.634613 120.428780,275.009460 
	C119.216812,275.382294 118.170738,276.294434 117.051910,276.970093 
	C118.187500,277.637604 119.266548,278.719330 120.470810,278.883698 
	C122.758278,279.195892 125.117401,278.983063 128.392990,278.986145 
M181.508041,302.302673 
	C177.848679,302.310333 174.170181,302.102112 170.538727,302.424286 
	C168.924210,302.567566 167.404602,303.780609 165.841919,304.508087 
	C167.358261,305.058411 168.872925,306.083252 170.391190,306.088593 
	C197.503326,306.184174 224.615906,306.156433 251.728378,306.153503 
	C252.892654,306.153381 254.094696,306.307526 255.206970,306.062347 
	C255.869125,305.916382 256.947418,304.989075 256.864044,304.659790 
	C256.661407,303.859497 256.004822,302.758423 255.323090,302.581879 
	C253.909760,302.215851 252.361267,302.321686 250.868301,302.320740 
	C228.080505,302.306549 205.292709,302.306458 181.508041,302.302673 
M197.518707,326.791565 
	C210.008087,326.792572 222.498199,326.854187 234.985764,326.704651 
	C236.292831,326.688995 237.584976,325.425507 238.884033,324.740967 
	C237.893784,324.138977 236.907028,323.018860 235.912796,323.012207 
	C219.427582,322.901337 202.941208,322.898712 186.456009,323.007629 
	C185.487381,323.013977 184.526382,324.172180 183.561844,324.794342 
	C184.553543,325.453583 185.508194,326.603271 186.543808,326.681519 
	C189.855835,326.931854 193.197876,326.784882 197.518707,326.791565 
M293.857300,155.128342 
	C293.494965,154.261948 292.737152,153.338608 292.851990,152.540894 
	C293.097412,150.835983 293.794586,149.196106 294.494049,146.919891 
	C286.628052,149.247574 280.682892,153.309875 280.315887,156.795807 
	C283.059845,155.532806 285.505310,154.407211 289.309357,152.656281 
	C285.985413,157.072159 289.445190,157.526962 291.249237,158.403580 
	C289.815521,161.518814 284.950653,160.500229 284.873016,166.078705 
	C290.253784,163.029770 294.850189,160.425278 299.446594,157.820801 
	C299.336212,157.290634 299.225861,156.760452 299.115479,156.230286 
	C297.621704,155.876678 296.127930,155.523071 293.857300,155.128342 
M199.829849,112.011322 
	C200.224503,114.942772 200.619141,117.874229 201.013794,120.805679 
	C201.642975,120.757477 202.272171,120.709274 202.901352,120.661072 
	C202.901352,117.890709 202.901352,115.120346 202.901352,111.420448 
	C206.130829,115.035042 208.496506,117.682831 210.862198,120.330620 
	C211.378677,120.048790 211.895157,119.766953 212.411636,119.485115 
	C211.952438,114.280617 211.493240,109.076118 211.034042,103.871620 
	C210.355896,103.810448 209.677750,103.749275 208.999603,103.688095 
	C208.445801,106.078209 207.891998,108.468315 207.338608,110.856697 
	C204.932922,108.587608 202.675964,106.458809 200.419006,104.330009 
	C199.999649,104.671181 199.580276,105.012352 199.160904,105.353531 
	C199.355301,107.293427 199.549698,109.233330 199.829849,112.011322 
M156.945953,129.505066 
	C154.568359,129.026825 152.190781,128.548584 149.813187,128.070358 
	C149.672409,128.581345 149.531631,129.092346 149.390839,129.603333 
	C152.209671,133.065460 154.979980,136.569489 157.897507,139.946365 
	C158.356537,140.477676 159.482300,140.432999 160.299789,140.654633 
	C160.235382,139.809738 160.451935,138.787354 160.052078,138.154358 
	C158.995651,136.481979 157.672089,134.978363 156.023773,132.851288 
	C160.422226,133.782654 164.025238,134.545578 168.631393,135.520920 
	C163.332748,125.968231 159.238525,122.152168 156.435837,123.647636 
	C157.878677,125.630417 159.310349,127.597855 160.944870,129.844055 
	C159.540070,129.844055 158.581985,129.844055 156.945953,129.505066 
M165.615067,117.051643 
	C167.668274,121.867683 169.721481,126.683731 171.763199,131.472824 
	C181.802521,127.098656 182.391129,125.545052 177.842087,117.600555 
	C175.147186,112.894081 173.417374,112.747932 165.615067,117.051643 
M226.529755,106.634422 
	C226.240250,111.277168 223.391510,115.809090 224.682449,120.520279 
	C225.196564,120.582520 225.710693,120.644760 226.224823,120.707008 
	C227.040009,118.744102 227.855179,116.781204 228.851227,114.382812 
	C230.914276,117.591705 232.524323,120.095993 234.134369,122.600281 
	C234.599655,122.261276 235.064926,121.922272 235.530212,121.583267 
	C234.559158,118.950470 232.547546,116.161613 232.912354,113.729164 
	C233.270706,111.339745 236.042923,109.312340 237.755844,107.126068 
	C237.556488,106.768532 237.357117,106.410995 237.157761,106.053459 
	C234.566376,107.560837 231.975006,109.068214 229.064346,110.761307 
	C229.240601,109.130898 229.570206,107.805756 229.389465,106.554314 
	C229.343704,106.237335 227.671402,106.155266 226.529755,106.634422 
M270.316040,143.444366 
	C272.640106,146.021423 274.964142,148.598495 277.288208,151.175552 
	C277.781036,150.704956 278.273834,150.234375 278.766663,149.763794 
	C277.231110,147.791229 275.695557,145.818680 273.965790,143.596619 
	C274.965424,142.767258 275.801025,142.074005 276.596588,141.413971 
	C278.200165,142.577209 279.632935,143.616516 281.065674,144.655838 
	C281.399292,144.358841 281.732910,144.061829 282.066498,143.764832 
	C281.179688,142.228699 280.292877,140.692566 279.406067,139.156418 
	C279.579315,138.690536 279.752563,138.224640 279.925781,137.758759 
	C281.271729,138.146271 282.739594,138.314606 283.932037,138.977997 
	C285.353271,139.768661 286.538330,140.983810 287.825714,142.015045 
	C288.186890,141.526901 288.548096,141.038742 288.909271,140.550598 
	C286.655640,138.006088 284.402039,135.461578 281.845520,132.575089 
	C277.850922,136.171738 274.177856,139.478912 270.316040,143.444366 
M194.101318,121.669388 
	C197.017014,117.063683 194.688431,112.930305 192.397964,109.234505 
	C190.458038,106.104301 185.058548,106.775528 183.139481,110.162033 
	C180.724457,114.423721 183.137878,118.314857 185.237946,121.664436 
	C187.308212,124.966507 190.633377,124.096764 194.101318,121.669388 
M141.659744,137.230637 
	C138.883972,139.275848 137.596085,142.281433 139.557831,144.999634 
	C141.901505,148.247101 144.750443,151.774902 149.670456,151.001694 
	C152.997421,150.478836 155.128372,146.471237 153.967087,143.310989 
	C152.630005,139.672394 146.412537,136.237427 141.659744,137.230637 
M253.671799,114.106270 
	C250.917648,112.257408 248.163513,110.408554 244.901245,108.218590 
	C242.558243,113.999199 240.627518,118.762634 238.696793,123.526077 
	C239.231369,123.872597 239.765945,124.219116 240.300537,124.565643 
	C241.673080,122.813095 243.045639,121.060539 244.397812,119.334015 
	C251.270157,121.702507 252.935913,120.898354 253.671799,114.106270 
M259.069153,119.350502 
	C257.496185,121.673828 255.564636,123.837051 254.438324,126.359787 
	C252.929138,129.740128 254.816528,132.169479 257.884155,133.500183 
	C260.459137,134.617172 262.818512,134.325989 264.099548,131.982590 
	C261.403046,130.645432 259.215881,129.560852 257.028717,128.476257 
	C258.629425,126.041367 260.230164,123.606483 261.830872,121.171585 
	C263.691589,122.825478 265.552307,124.479362 268.297577,126.919479 
	C268.012024,124.659088 268.380737,122.317940 267.397614,120.944176 
	C265.622559,118.463768 262.969635,116.846107 259.069153,119.350502 
M138.456543,160.325195 
	C135.106873,159.378647 132.589630,155.506683 128.314316,157.456390 
	C132.196350,160.352997 136.314713,162.661987 140.511337,164.818741 
	C141.050903,165.096008 142.426010,164.834595 142.684036,164.394608 
	C144.258347,161.710007 145.621674,158.901688 147.055359,156.134613 
	C146.553604,155.812515 146.051834,155.490433 145.550064,155.168335 
	C144.611099,156.419815 143.830276,157.849045 142.684662,158.868271 
	C141.713638,159.732193 140.320953,160.122177 138.456543,160.325195 
M161.206848,189.283768 
	C160.618607,188.416214 160.030365,187.548676 159.412872,186.638016 
	C155.635178,190.210953 155.849319,193.481903 160.304428,197.700943 
	C160.799179,194.590271 161.176178,192.219849 161.206848,189.283768 
M276.711121,227.626953 
	C279.376831,224.275436 279.580231,221.092453 275.932648,218.057098 
	C272.643036,221.492355 272.154572,224.770584 276.711121,227.626953 
M224.718674,140.655869 
	C221.350693,144.062408 221.335144,147.270844 225.133499,150.390198 
	C228.546890,147.066223 228.552292,143.869522 224.718674,140.655869 
z"/>
<path fill="#E5E9EE" opacity="1.000000" stroke="none" 
	d="
M184.013199,277.027344 
	C170.187271,276.922241 170.161255,276.922333 170.115768,263.778168 
	C170.075974,252.279068 169.948227,240.775925 170.229172,229.283615 
	C170.286972,226.919327 171.441849,224.116486 173.018295,222.337387 
	C178.982040,215.607025 184.890594,208.712326 191.651184,202.835526 
	C198.582169,196.810608 200.075241,189.830750 198.279007,181.243591 
	C195.314926,180.872833 192.205856,180.483917 189.096771,180.095016 
	C189.060684,179.360703 189.024582,178.626373 188.988480,177.892059 
	C192.106567,177.447052 195.224655,177.002045 198.787231,176.493591 
	C198.787231,174.778229 198.594208,172.936096 198.858246,171.162003 
	C199.021652,170.064041 199.879868,169.069504 200.426193,168.028534 
	C201.057724,168.995605 202.059647,169.899429 202.237930,170.943878 
	C202.539658,172.711319 202.320786,174.567642 202.320786,176.590485 
	C205.749252,176.953339 208.858307,177.282379 211.967346,177.611420 
	C212.016632,178.324783 212.065933,179.038147 212.115219,179.751511 
	C209.023636,180.294876 205.932053,180.838242 202.702026,181.405930 
	C201.689606,189.136459 201.663315,196.165009 208.643585,202.031677 
	C214.975159,207.353134 220.261368,213.918396 226.525070,220.476151 
	C226.839355,218.875656 227.163864,217.883957 227.204315,216.880814 
	C227.291565,214.717758 227.226715,212.548798 227.234802,210.382278 
	C227.313400,189.324539 227.366974,189.361328 239.199677,172.334976 
	C241.561996,168.935791 243.300156,168.846848 245.266663,172.440262 
	C245.425995,172.731384 245.610275,173.016846 245.826019,173.267960 
	C255.186661,184.163406 258.198578,196.561600 257.418976,210.997070 
	C256.333099,231.103668 257.025635,251.314041 257.237701,271.477051 
	C257.284576,275.935120 255.833954,277.148132 251.504898,277.112274 
	C229.174606,276.927368 206.841934,277.027557 184.013199,277.027344 
M194.034470,265.857513 
	C194.034470,268.120636 194.034470,270.383728 194.034470,272.743469 
	C198.716492,272.743469 202.724518,272.743469 206.998520,272.743469 
	C206.998520,259.566132 207.038345,246.816772 206.975861,234.067932 
	C206.955368,229.886810 204.391556,227.305054 200.507278,227.344925 
	C196.682251,227.384186 194.149521,229.837616 194.100418,234.112045 
	C194.054810,238.083801 193.919250,242.054504 193.151337,246.020309 
	C192.255936,246.029999 191.360535,246.039688 190.257751,245.135483 
	C190.375198,240.827179 190.029587,236.442642 190.723160,232.229172 
	C191.664825,226.508530 196.023148,223.422577 201.327118,223.828262 
	C206.503403,224.224213 210.277573,228.150620 210.535995,233.828705 
	C210.747620,238.478607 210.588196,243.145493 210.589203,247.804855 
	C210.590988,256.070892 210.589706,264.336945 210.589706,272.786682 
	C216.459854,272.786682 221.661087,272.786682 227.258850,272.786682 
	C227.258850,257.786102 227.282318,243.167770 227.210358,228.549942 
	C227.205109,227.483368 226.796768,226.149567 226.089630,225.396729 
	C217.687683,216.452103 209.193314,207.594299 200.505600,198.485565 
	C191.825287,207.600662 183.406921,216.334457 175.168167,225.234528 
	C174.202316,226.277878 173.860687,228.234024 173.847992,229.772110 
	C173.739502,242.917603 173.760345,256.064301 173.787140,269.210571 
	C173.789688,270.462433 174.096497,271.713684 174.236862,272.774750 
	C179.769180,272.774750 184.842926,272.774750 189.958359,272.774750 
	C190.147400,269.902740 190.310501,267.424927 191.145660,264.941986 
	C192.041321,264.953247 192.936966,264.964508 194.034470,265.857513 
M247.332779,182.199585 
	C245.731018,179.818695 244.129257,177.437790 242.223572,174.605148 
	C239.593994,178.594559 237.649475,182.102509 235.167007,185.175964 
	C231.716263,189.448257 230.840210,194.103958 230.903214,199.499710 
	C231.142059,219.953812 230.986786,240.412521 230.979492,260.869507 
	C230.978088,264.807495 230.979279,268.745483 230.979279,272.773102 
	C238.820602,272.773102 246.005920,272.773102 253.638062,272.773102 
	C253.638062,270.737946 253.638031,269.099823 253.638062,267.461700 
	C253.638550,245.840057 253.366486,224.213089 253.787918,202.599655 
	C253.934647,195.073990 252.619492,188.525818 247.332779,182.199585 
z"/>
<path fill="#EAEDF0" opacity="1.000000" stroke="none" 
	d="
M295.514038,275.389404 
	C299.775330,275.866486 299.200195,273.162292 299.200256,270.885712 
	C299.201050,248.101395 299.136871,225.316666 299.286652,202.533340 
	C299.303070,200.039185 300.545288,197.553101 301.218964,195.063263 
	C301.899017,197.491089 303.153046,199.914993 303.169617,202.347336 
	C303.321350,224.631699 303.258270,246.917511 303.257843,269.202911 
	C303.257812,271.002808 303.257874,272.802673 303.257874,274.364014 
	C303.897095,274.785675 304.149200,275.004944 304.440918,275.135773 
	C306.300568,275.969971 308.168915,276.784698 310.034393,277.605835 
	C307.979126,278.128113 305.947784,278.926056 303.862915,279.106689 
	C300.891815,279.364105 297.868378,279.330719 294.894135,279.090057 
	C293.632324,278.987946 292.438538,278.045166 291.213867,277.484467 
	C292.501801,276.786865 293.789764,276.089264 295.514038,275.389404 
z"/>
<path fill="#E9ECEF" opacity="1.000000" stroke="none" 
	d="
M215.000000,284.948792 
	C232.805527,284.949158 250.111343,284.907715 267.416107,285.022064 
	C268.957428,285.032227 270.492035,286.055481 272.029755,286.608215 
	C270.466644,287.351654 268.905640,288.739014 267.340149,288.744110 
	C229.900696,288.866180 192.460770,288.840118 155.020920,288.840363 
	C154.521744,288.840363 153.951492,288.988617 153.537170,288.799164 
	C152.442184,288.298492 151.414749,287.650055 150.360443,287.060394 
	C151.439590,286.361298 152.509201,285.072632 153.599335,285.055023 
	C163.580750,284.893890 173.565720,284.951569 183.549667,284.949280 
	C193.866440,284.946899 204.183228,284.948822 215.000000,284.948792 
z"/>
<path fill="#E6E9EE" opacity="1.000000" stroke="none" 
	d="
M127.919876,278.987213 
	C125.117401,278.983063 122.758278,279.195892 120.470810,278.883698 
	C119.266548,278.719330 118.187500,277.637604 117.051910,276.970093 
	C118.170738,276.294434 119.216812,275.382294 120.428780,275.009460 
	C121.647423,274.634613 123.031181,274.796570 124.777649,274.698975 
	C124.777649,272.753510 124.777458,270.973480 124.777679,269.193451 
	C124.780563,246.232437 124.748207,223.271225 124.868698,200.310822 
	C124.876434,198.836777 126.065964,197.368912 126.705734,195.898178 
	C127.362411,197.391586 128.582794,198.881775 128.591324,200.378876 
	C128.721130,223.172775 128.692459,245.967606 128.700653,268.762207 
	C128.701294,270.579163 128.700729,272.396118 128.700729,274.469482 
	C129.845688,274.647736 130.840958,274.629547 131.689636,274.973267 
	C133.147934,275.563904 134.514771,276.380371 135.919983,277.102051 
	C134.409286,277.727142 132.935181,278.479248 131.373993,278.929291 
	C130.451538,279.195221 129.391281,278.983215 127.919876,278.987213 
z"/>
<path fill="#E3E7EC" opacity="1.000000" stroke="none" 
	d="
M182.006470,302.302887 
	C205.292709,302.306458 228.080505,302.306549 250.868301,302.320740 
	C252.361267,302.321686 253.909760,302.215851 255.323090,302.581879 
	C256.004822,302.758423 256.661407,303.859497 256.864044,304.659790 
	C256.947418,304.989075 255.869125,305.916382 255.206970,306.062347 
	C254.094696,306.307526 252.892654,306.153381 251.728378,306.153503 
	C224.615906,306.156433 197.503326,306.184174 170.391190,306.088593 
	C168.872925,306.083252 167.358261,305.058411 165.841919,304.508118 
	C167.404602,303.780609 168.924210,302.567566 170.538727,302.424286 
	C174.170181,302.102112 177.848679,302.310333 182.006470,302.302887 
z"/>
<path fill="#E8EBEE" opacity="1.000000" stroke="none" 
	d="
M197.023529,326.791443 
	C193.197876,326.784882 189.855835,326.931854 186.543808,326.681519 
	C185.508194,326.603271 184.553543,325.453583 183.561844,324.794342 
	C184.526382,324.172180 185.487381,323.013977 186.456009,323.007629 
	C202.941208,322.898712 219.427582,322.901337 235.912796,323.012207 
	C236.907028,323.018860 237.893784,324.138977 238.884033,324.740967 
	C237.584976,325.425507 236.292831,326.688995 234.985764,326.704651 
	C222.498199,326.854187 210.008087,326.792572 197.023529,326.791443 
z"/>
<path fill="#E5E9ED" opacity="1.000000" stroke="none" 
	d="
M294.245728,155.148911 
	C296.127930,155.523071 297.621704,155.876678 299.115479,156.230286 
	C299.225861,156.760452 299.336212,157.290634 299.446594,157.820801 
	C294.850189,160.425278 290.253784,163.029770 284.873016,166.078705 
	C284.950653,160.500229 289.815521,161.518814 291.249237,158.403580 
	C289.445190,157.526962 285.985413,157.072159 289.309357,152.656281 
	C285.505310,154.407211 283.059845,155.532806 280.315887,156.795807 
	C280.682892,153.309875 286.628052,149.247574 294.494049,146.919891 
	C293.794586,149.196106 293.097412,150.835983 292.851990,152.540894 
	C292.737152,153.338608 293.494965,154.261948 294.245728,155.148911 
z"/>
<path fill="#E5EBED" opacity="1.000000" stroke="none" 
	d="
M199.786972,111.592278 
	C199.549698,109.233330 199.355301,107.293427 199.160904,105.353531 
	C199.580276,105.012352 199.999649,104.671181 200.419006,104.330009 
	C202.675964,106.458809 204.932922,108.587608 207.338608,110.856697 
	C207.891998,108.468315 208.445801,106.078209 208.999603,103.688095 
	C209.677750,103.749275 210.355896,103.810448 211.034042,103.871620 
	C211.493240,109.076118 211.952438,114.280617 212.411636,119.485115 
	C211.895157,119.766953 211.378677,120.048790 210.862198,120.330620 
	C208.496506,117.682831 206.130829,115.035042 202.901352,111.420448 
	C202.901352,115.120346 202.901352,117.890709 202.901352,120.661072 
	C202.272171,120.709274 201.642975,120.757477 201.013794,120.805679 
	C200.619141,117.874229 200.224503,114.942772 199.786972,111.592278 
z"/>
<path fill="#E5EBED" opacity="1.000000" stroke="none" 
	d="
M157.284927,129.674561 
	C158.581985,129.844055 159.540070,129.844055 160.944870,129.844055 
	C159.310349,127.597855 157.878677,125.630417 156.435837,123.647636 
	C159.238525,122.152168 163.332748,125.968231 168.631393,135.520920 
	C164.025238,134.545578 160.422226,133.782654 156.023773,132.851288 
	C157.672089,134.978363 158.995651,136.481979 160.052078,138.154358 
	C160.451935,138.787354 160.235382,139.809738 160.299789,140.654633 
	C159.482300,140.432999 158.356537,140.477676 157.897507,139.946365 
	C154.979980,136.569489 152.209671,133.065460 149.390839,129.603333 
	C149.531631,129.092346 149.672409,128.581345 149.813187,128.070358 
	C152.190781,128.548584 154.568359,129.026825 157.284927,129.674561 
z"/>
<path fill="#E3E8EC" opacity="1.000000" stroke="none" 
	d="
M165.918976,116.835228 
	C173.417374,112.747932 175.147186,112.894081 177.842087,117.600555 
	C182.391129,125.545052 181.802521,127.098656 171.763199,131.472824 
	C169.721481,126.683731 167.668274,121.867683 165.918976,116.835228 
M169.571411,117.866653 
	C170.702423,121.090454 171.833435,124.314255 172.964447,127.538055 
	C173.552429,127.642555 174.140411,127.747055 174.728378,127.851555 
	C175.591599,126.322327 177.560516,124.189194 177.115540,123.374458 
	C175.643417,120.679100 175.946884,115.249893 169.571411,117.866653 
z"/>
<path fill="#E3E7EB" opacity="1.000000" stroke="none" 
	d="
M226.638123,106.299835 
	C227.671402,106.155266 229.343704,106.237335 229.389465,106.554314 
	C229.570206,107.805756 229.240601,109.130898 229.064346,110.761307 
	C231.975006,109.068214 234.566376,107.560837 237.157761,106.053459 
	C237.357117,106.410995 237.556488,106.768532 237.755844,107.126068 
	C236.042923,109.312340 233.270706,111.339745 232.912354,113.729164 
	C232.547546,116.161613 234.559158,118.950470 235.530212,121.583267 
	C235.064926,121.922272 234.599655,122.261276 234.134369,122.600281 
	C232.524323,120.095993 230.914276,117.591705 228.851227,114.382812 
	C227.855179,116.781204 227.040009,118.744102 226.224823,120.707008 
	C225.710693,120.644760 225.196564,120.582520 224.682449,120.520279 
	C223.391510,115.809090 226.240250,111.277168 226.638123,106.299835 
z"/>
<path fill="#E3E8EC" opacity="1.000000" stroke="none" 
	d="
M270.410400,143.115234 
	C274.177856,139.478912 277.850922,136.171738 281.845520,132.575089 
	C284.402039,135.461578 286.655640,138.006088 288.909271,140.550598 
	C288.548096,141.038742 288.186890,141.526901 287.825714,142.015045 
	C286.538330,140.983810 285.353271,139.768661 283.932037,138.977997 
	C282.739594,138.314606 281.271729,138.146271 279.925781,137.758759 
	C279.752563,138.224640 279.579315,138.690536 279.406067,139.156418 
	C280.292877,140.692566 281.179688,142.228699 282.066498,143.764832 
	C281.732910,144.061829 281.399292,144.358841 281.065674,144.655838 
	C279.632935,143.616516 278.200165,142.577209 276.596588,141.413971 
	C275.801025,142.074005 274.965424,142.767258 273.965790,143.596619 
	C275.695557,145.818680 277.231110,147.791229 278.766663,149.763794 
	C278.273834,150.234375 277.781036,150.704956 277.288208,151.175552 
	C274.964142,148.598495 272.640106,146.021423 270.410400,143.115234 
z"/>
<path fill="#E6E9EE" opacity="1.000000" stroke="none" 
	d="
M193.824707,121.912491 
	C190.633377,124.096764 187.308212,124.966507 185.237946,121.664436 
	C183.137878,118.314857 180.724457,114.423721 183.139481,110.162033 
	C185.058548,106.775528 190.458038,106.104301 192.397964,109.234505 
	C194.688431,112.930305 197.017014,117.063683 193.824707,121.912491 
M185.287048,111.897446 
	C185.825684,114.290245 185.949921,116.913033 187.092010,118.970924 
	C187.600845,119.887794 190.158981,119.667358 191.786987,119.963120 
	C191.416092,117.161461 191.326416,114.267288 190.458618,111.629082 
	C190.263779,111.036720 187.348236,111.339279 185.287048,111.897446 
z"/>
<path fill="#E6EBEF" opacity="1.000000" stroke="none" 
	d="
M141.998184,137.058090 
	C146.412537,136.237427 152.630005,139.672394 153.967087,143.310989 
	C155.128372,146.471237 152.997421,150.478836 149.670456,151.001694 
	C144.750443,151.774902 141.901505,148.247101 139.557831,144.999634 
	C137.596085,142.281433 138.883972,139.275848 141.998184,137.058090 
M147.072800,140.509033 
	C145.144547,138.820633 142.289536,138.279846 142.151611,141.024994 
	C142.044754,143.151733 144.702728,145.714935 146.668350,147.489700 
	C147.373077,148.126007 149.700851,147.154480 151.152435,146.576599 
	C151.379471,146.486191 151.189453,144.367264 150.642502,143.557831 
	C149.932617,142.507278 148.671921,141.828934 147.072800,140.509033 
z"/>
<path fill="#E3E8EC" opacity="1.000000" stroke="none" 
	d="
M253.787384,114.472961 
	C252.935913,120.898354 251.270157,121.702507 244.397812,119.334015 
	C243.045639,121.060539 241.673080,122.813095 240.300537,124.565643 
	C239.765945,124.219116 239.231369,123.872597 238.696793,123.526077 
	C240.627518,118.762634 242.558243,113.999199 244.901245,108.218590 
	C248.163513,110.408554 250.917648,112.257408 253.787384,114.472961 
M245.588730,116.919044 
	C247.319473,116.805756 249.050201,116.692474 250.780945,116.579193 
	C250.094040,115.446655 249.668732,113.754463 248.670532,113.287857 
	C245.819244,111.955017 245.451248,114.258934 245.588730,116.919044 
z"/>
<path fill="#DFE5EA" opacity="1.000000" stroke="none" 
	d="
M259.378662,119.137802 
	C262.969635,116.846107 265.622559,118.463768 267.397614,120.944176 
	C268.380737,122.317940 268.012024,124.659088 268.297577,126.919479 
	C265.552307,124.479362 263.691589,122.825478 261.830872,121.171585 
	C260.230164,123.606483 258.629425,126.041367 257.028717,128.476257 
	C259.215881,129.560852 261.403046,130.645432 264.099548,131.982590 
	C262.818512,134.325989 260.459137,134.617172 257.884155,133.500183 
	C254.816528,132.169479 252.929138,129.740128 254.438324,126.359787 
	C255.564636,123.837051 257.496185,121.673828 259.378662,119.137802 
z"/>
<path fill="#E1E6EC" opacity="1.000000" stroke="none" 
	d="
M138.785706,160.523529 
	C140.320953,160.122177 141.713638,159.732193 142.684662,158.868271 
	C143.830276,157.849045 144.611099,156.419815 145.550064,155.168335 
	C146.051834,155.490433 146.553604,155.812515 147.055359,156.134613 
	C145.621674,158.901688 144.258347,161.710007 142.684036,164.394608 
	C142.426010,164.834595 141.050903,165.096008 140.511337,164.818741 
	C136.314713,162.661987 132.196350,160.352997 128.314316,157.456390 
	C132.589630,155.506683 135.106873,159.378647 138.785706,160.523529 
z"/>
<path fill="#D7B162" opacity="1.000000" stroke="none" 
	d="
M161.380005,189.566605 
	C161.176178,192.219849 160.799179,194.590271 160.304428,197.700943 
	C155.849319,193.481903 155.635178,190.210953 159.412872,186.638016 
	C160.030365,187.548676 160.618607,188.416214 161.380005,189.566605 
z"/>
<path fill="#DEB45F" opacity="1.000000" stroke="none" 
	d="
M276.470886,227.798965 
	C272.154572,224.770584 272.643036,221.492355 275.932648,218.057098 
	C279.580231,221.092453 279.376831,224.275436 276.470886,227.798965 
z"/>
<path fill="#D5AF5F" opacity="1.000000" stroke="none" 
	d="
M225.028381,140.655487 
	C228.552292,143.869522 228.546890,147.066223 225.133499,150.390198 
	C221.335144,147.270844 221.350693,144.062408 225.028381,140.655487 
z"/>
<path fill="#43516B" opacity="1.000000" stroke="none" 
	d="
M190.473587,264.947113 
	C190.310501,267.424927 190.147400,269.902740 189.958359,272.774750 
	C184.842926,272.774750 179.769180,272.774750 174.236862,272.774750 
	C174.096497,271.713684 173.789688,270.462433 173.787140,269.210571 
	C173.760345,256.064301 173.739502,242.917603 173.847992,229.772110 
	C173.860687,228.234024 174.202316,226.277878 175.168167,225.234528 
	C183.406921,216.334457 191.825287,207.600662 200.505600,198.485565 
	C209.193314,207.594299 217.687683,216.452103 226.089630,225.396729 
	C226.796768,226.149567 227.205109,227.483368 227.210358,228.549942 
	C227.282318,243.167770 227.258850,257.786102 227.258850,272.786682 
	C221.661087,272.786682 216.459854,272.786682 210.589706,272.786682 
	C210.589706,264.336945 210.590988,256.070892 210.589203,247.804855 
	C210.588196,243.145493 210.747620,238.478607 210.535995,233.828705 
	C210.277573,228.150620 206.503403,224.224213 201.327118,223.828262 
	C196.023148,223.422577 191.664825,226.508530 190.723160,232.229172 
	C190.029587,236.442642 190.375198,240.827179 190.278839,246.050720 
	C190.357803,252.959671 190.415695,258.953400 190.473587,264.947113 
M224.419525,241.459427 
	C223.570190,237.979355 221.037918,235.886322 217.916290,237.175812 
	C215.895142,238.010712 213.823914,241.016022 213.530914,243.276382 
	C212.875885,248.329391 213.312225,253.524796 213.317581,258.662201 
	C213.321533,262.458374 214.697876,265.304993 218.941940,265.321777 
	C223.180237,265.338501 224.603210,262.545502 224.591049,258.717499 
	C224.573654,253.249039 224.557541,247.780563 224.419525,241.459427 
M176.686035,241.516586 
	C176.642334,247.334717 176.592041,253.152802 176.557358,258.970978 
	C176.535629,262.615387 177.895279,265.240540 181.934860,265.298340 
	C185.915512,265.355377 187.581406,262.694611 187.719147,259.190155 
	C187.928009,253.875748 188.235443,248.487549 187.559341,243.252304 
	C187.268173,240.997635 184.986557,238.082321 182.915146,237.296417 
	C181.523697,236.768478 178.914062,239.451340 176.686035,241.516586 
z"/>
<path fill="#47546F" opacity="1.000000" stroke="none" 
	d="
M247.541565,182.492889 
	C252.619492,188.525818 253.934647,195.073990 253.787918,202.599655 
	C253.366486,224.213089 253.638550,245.840057 253.638062,267.461700 
	C253.638031,269.099823 253.638062,270.737946 253.638062,272.773102 
	C246.005920,272.773102 238.820602,272.773102 230.979279,272.773102 
	C230.979279,268.745483 230.978088,264.807495 230.979492,260.869507 
	C230.986786,240.412521 231.142059,219.953812 230.903214,199.499710 
	C230.840210,194.103958 231.716263,189.448257 235.167007,185.175964 
	C237.649475,182.102509 239.593994,178.594559 242.223572,174.605148 
	C244.129257,177.437790 245.731018,179.818695 247.541565,182.492889 
M236.781860,209.806686 
	C236.788513,214.464584 236.874786,219.124130 236.777115,223.779846 
	C236.696060,227.643234 238.006149,230.577316 242.184570,230.629181 
	C246.326614,230.680603 247.867676,227.725189 247.911957,223.941528 
	C247.968414,219.117981 247.884186,214.292892 247.927734,209.469070 
	C247.963455,205.514893 246.674210,202.208435 242.321014,202.122192 
	C238.245209,202.041458 236.669128,205.019470 236.781860,209.806686 
M247.930984,251.538269 
	C247.924393,249.216385 248.059006,246.883469 247.878403,244.575195 
	C247.601120,241.031738 245.976089,238.428116 242.024414,238.604370 
	C238.396057,238.766174 236.824249,241.128448 236.813782,244.616196 
	C236.797333,250.089279 236.777054,255.562637 236.815491,261.035492 
	C236.839859,264.506744 238.447403,266.877991 242.072433,267.002686 
	C246.025070,267.138611 247.633560,264.477142 247.882675,260.958038 
	C248.081299,258.152496 247.927292,255.322006 247.930984,251.538269 
z"/>
<path fill="#42506B" opacity="1.000000" stroke="none" 
	d="
M193.823303,246.025681 
	C193.919250,242.054504 194.054810,238.083801 194.100418,234.112045 
	C194.149521,229.837616 196.682251,227.384186 200.507278,227.344925 
	C204.391556,227.305054 206.955368,229.886810 206.975861,234.067932 
	C207.038345,246.816772 206.998520,259.566132 206.998520,272.743469 
	C202.724518,272.743469 198.716492,272.743469 194.034470,272.743469 
	C194.034470,270.383728 194.034470,268.120636 194.006317,264.954895 
	C193.926544,258.043396 193.874924,252.034546 193.823303,246.025681 
z"/>
<path fill="#FCFDFD" opacity="1.000000" stroke="none" 
	d="
M193.487320,246.022995 
	C193.874924,252.034546 193.926544,258.043396 193.905396,264.514038 
	C192.936966,264.964508 192.041321,264.953247 190.809631,264.944550 
	C190.415695,258.953400 190.357803,252.959671 190.382523,246.507660 
	C191.360535,246.039688 192.255936,246.029999 193.487320,246.022995 
z"/>
<path fill="#4D5972" opacity="1.000000" stroke="none" 
	d="
M169.882385,117.627838 
	C175.946884,115.249893 175.643417,120.679100 177.115540,123.374458 
	C177.560516,124.189194 175.591599,126.322327 174.728378,127.851555 
	C174.140411,127.747055 173.552429,127.642555 172.964447,127.538055 
	C171.833435,124.314255 170.702423,121.090454 169.882385,117.627838 
z"/>
<path fill="#4D5972" opacity="1.000000" stroke="none" 
	d="
M185.486130,111.563644 
	C187.348236,111.339279 190.263779,111.036720 190.458618,111.629082 
	C191.326416,114.267288 191.416092,117.161461 191.786987,119.963120 
	C190.158981,119.667358 187.600845,119.887794 187.092010,118.970924 
	C185.949921,116.913033 185.825684,114.290245 185.486130,111.563644 
z"/>
<path fill="#4E5971" opacity="1.000000" stroke="none" 
	d="
M147.360565,140.749695 
	C148.671921,141.828934 149.932617,142.507278 150.642502,143.557831 
	C151.189453,144.367264 151.379471,146.486191 151.152435,146.576599 
	C149.700851,147.154480 147.373077,148.126007 146.668350,147.489700 
	C144.702728,145.714935 142.044754,143.151733 142.151611,141.024994 
	C142.289536,138.279846 145.144547,138.820633 147.360565,140.749695 
z"/>
<path fill="#4F5D74" opacity="1.000000" stroke="none" 
	d="
M245.352783,116.609474 
	C245.451248,114.258934 245.819244,111.955017 248.670532,113.287857 
	C249.668732,113.754463 250.094040,115.446655 250.780945,116.579193 
	C249.050201,116.692474 247.319473,116.805756 245.352783,116.609474 
z"/>
<path fill="#E1E5E9" opacity="1.000000" stroke="none" 
	d="
M224.480209,241.885773 
	C224.557541,247.780563 224.573654,253.249039 224.591049,258.717499 
	C224.603210,262.545502 223.180237,265.338501 218.941940,265.321777 
	C214.697876,265.304993 213.321533,262.458374 213.317581,258.662201 
	C213.312225,253.524796 212.875885,248.329391 213.530914,243.276382 
	C213.823914,241.016022 215.895142,238.010712 217.916290,237.175812 
	C221.037918,235.886322 223.570190,237.979355 224.480209,241.885773 
M216.983124,254.335205 
	C216.985916,255.660751 216.735962,257.052948 217.063004,258.292969 
	C217.386368,259.519073 218.292450,260.591522 218.942947,261.731354 
	C219.635635,260.624725 220.877869,259.541443 220.926041,258.407410 
	C221.136780,253.446075 221.108292,248.465591 220.901978,243.503052 
	C220.860367,242.502045 219.669113,241.548828 219.007889,240.573563 
	C218.335861,241.527679 217.159531,242.443802 217.084274,243.442886 
	C216.836060,246.738190 216.986053,250.063507 216.983124,254.335205 
z"/>
<path fill="#EAEDF2" opacity="1.000000" stroke="none" 
	d="
M176.767746,241.107117 
	C178.914062,239.451340 181.523697,236.768478 182.915146,237.296417 
	C184.986557,238.082321 187.268173,240.997635 187.559341,243.252304 
	C188.235443,248.487549 187.928009,253.875748 187.719147,259.190155 
	C187.581406,262.694611 185.915512,265.355377 181.934860,265.298340 
	C177.895279,265.240540 176.535629,262.615387 176.557358,258.970978 
	C176.592041,253.152802 176.642334,247.334717 176.767746,241.107117 
M184.005524,249.575592 
	C183.982178,247.264755 184.142456,244.929276 183.837402,242.656250 
	C183.728394,241.844147 182.493439,241.183167 181.772415,240.453186 
	C181.205338,241.156982 180.164581,241.848740 180.146347,242.566498 
	C180.003754,248.175873 179.979904,253.792419 180.136627,259.400665 
	C180.159393,260.215759 181.335922,260.998566 181.978561,261.796295 
	C182.644302,261.013794 183.815109,260.273529 183.884750,259.441132 
	C184.131714,256.489380 184.002808,253.506180 184.005524,249.575592 
z"/>
<path fill="#EAEDF0" opacity="1.000000" stroke="none" 
	d="
M236.780060,209.349319 
	C236.669128,205.019470 238.245209,202.041458 242.321014,202.122192 
	C246.674210,202.208435 247.963455,205.514893 247.927734,209.469070 
	C247.884186,214.292892 247.968414,219.117981 247.911957,223.941528 
	C247.867676,227.725189 246.326614,230.680603 242.184570,230.629181 
	C238.006149,230.577316 236.696060,227.643234 236.777115,223.779846 
	C236.874786,219.124130 236.788513,214.464584 236.780060,209.349319 
M240.252243,210.782990 
	C240.252197,214.921432 240.088791,219.070175 240.348648,223.192230 
	C240.429779,224.479080 241.654007,225.693863 242.354950,226.941635 
	C242.961166,225.631058 244.023163,224.343353 244.090240,223.005753 
	C244.313828,218.547256 244.329758,214.062836 244.089874,209.606400 
	C244.021179,208.330200 242.816452,207.115173 242.132645,205.872086 
	C241.506577,207.201172 240.880508,208.530258 240.252243,210.782990 
z"/>
<path fill="#EAEDF1" opacity="1.000000" stroke="none" 
	d="
M247.930405,252.020432 
	C247.927292,255.322006 248.081299,258.152496 247.882675,260.958038 
	C247.633560,264.477142 246.025070,267.138611 242.072433,267.002686 
	C238.447403,266.877991 236.839859,264.506744 236.815491,261.035492 
	C236.777054,255.562637 236.797333,250.089279 236.813782,244.616196 
	C236.824249,241.128448 238.396057,238.766174 242.024414,238.604370 
	C245.976089,238.428116 247.601120,241.031738 247.878403,244.575195 
	C248.059006,246.883469 247.924393,249.216385 247.930405,252.020432 
M244.187500,251.533966 
	C244.171753,249.226028 244.318497,246.899551 244.058624,244.619446 
	C243.957565,243.732773 242.939163,242.950653 242.338623,242.120911 
	C241.654800,242.888748 240.402679,243.639023 240.378311,244.427261 
	C240.205124,250.027039 240.202087,255.637100 240.376175,261.236694 
	C240.399857,261.998993 241.708923,262.721344 242.422836,263.462189 
	C243.000763,262.610382 244.004562,261.793365 244.077499,260.900299 
	C244.304947,258.115173 244.180176,255.301331 244.187500,251.533966 
z"/>
<path fill="#49546D" opacity="1.000000" stroke="none" 
	d="
M216.983139,253.856247 
	C216.986053,250.063507 216.836060,246.738190 217.084274,243.442886 
	C217.159531,242.443802 218.335861,241.527679 219.007904,240.573578 
	C219.669113,241.548828 220.860367,242.502045 220.901978,243.503052 
	C221.108292,248.465591 221.136780,253.446075 220.926041,258.407410 
	C220.877869,259.541443 219.635635,260.624725 218.942932,261.731354 
	C218.292450,260.591522 217.386368,259.519073 217.063004,258.292969 
	C216.735962,257.052948 216.985916,255.660751 216.983139,253.856247 
z"/>
<path fill="#4E5B72" opacity="1.000000" stroke="none" 
	d="
M184.010925,250.055237 
	C184.002808,253.506180 184.131714,256.489380 183.884750,259.441132 
	C183.815109,260.273529 182.644302,261.013794 181.978546,261.796295 
	C181.335922,260.998566 180.159393,260.215759 180.136627,259.400665 
	C179.979904,253.792419 180.003754,248.175873 180.146347,242.566498 
	C180.164581,241.848740 181.205338,241.156982 181.772430,240.453186 
	C182.493439,241.183167 183.728394,241.844147 183.837402,242.656250 
	C184.142456,244.929276 183.982178,247.264755 184.010925,250.055237 
z"/>
<path fill="#4E5C73" opacity="1.000000" stroke="none" 
	d="
M240.253342,210.321167 
	C240.880508,208.530258 241.506577,207.201172 242.132629,205.872086 
	C242.816452,207.115173 244.021179,208.330200 244.089874,209.606400 
	C244.329758,214.062836 244.313828,218.547256 244.090240,223.005753 
	C244.023163,224.343353 242.961166,225.631058 242.354950,226.941635 
	C241.654007,225.693863 240.429779,224.479080 240.348648,223.192230 
	C240.088791,219.070175 240.252197,214.921432 240.253342,210.321167 
z"/>
<path fill="#4F5D74" opacity="1.000000" stroke="none" 
	d="
M244.189728,252.016296 
	C244.180176,255.301331 244.304947,258.115173 244.077499,260.900299 
	C244.004562,261.793365 243.000763,262.610382 242.422852,263.462189 
	C241.708923,262.721344 240.399857,261.998993 240.376175,261.236694 
	C240.202087,255.637100 240.205124,250.027039 240.378311,244.427261 
	C240.402679,243.639023 241.654800,242.888748 242.338623,242.120911 
	C242.939163,242.950653 243.957565,243.732773 244.058624,244.619446 
	C244.318497,246.899551 244.171753,249.226028 244.189728,252.016296 
z"/>
</svg>